<svg id="레이어_1" data-name="레이어 1" xmlns="http://www.w3.org/2000/svg" viewBox="0 0 292.29162 429.10184"><defs><style>.cls-1{fill:#ff5c5c;stroke:#fff;stroke-miterlimit:10;stroke-width:5px;}</style></defs><title>지도핀</title><path class="cls-1" d="M397.21091,157.24988c-6.4685-39.48218-28.08179-84.47974-89.22949-104.24463a170.15229,170.15229,0,0,0-104.56958,0c-61.14771,19.76489-82.761,64.76245-89.22949,104.24463a166.71678,166.71678,0,0,0,13.63037,97.05762C146.279,294.08875,181.802,370.47913,202.98484,415.1554c23.11181,48.74487,42.28418,53.8269,49.56616,53.71777q3.14576-.04724,6.29126,0c7.282.10913,26.45434-4.9729,49.56616-53.71777,21.18262-44.67627,56.70581-121.06665,75.17188-160.8479A166.715,166.715,0,0,0,397.21091,157.24988ZM255.69651,251.3722a70.99964,70.99964,0,1,1,70.99975-70.99976A70.9996,70.9996,0,0,1,255.69651,251.3722Z" transform="translate(-109.55082 -42.27301)"/></svg>