<?xml version="1.0" encoding="utf-8"?>
<!-- Generator: Adobe Illustrator 27.2.0, SVG Export Plug-In . SVG Version: 6.00 Build 0)  -->
<svg version="1.1" id="레이어_1" xmlns="http://www.w3.org/2000/svg" xmlns:xlink="http://www.w3.org/1999/xlink" x="0px"
	 y="0px" viewBox="0 0 32 90" style="enable-background:new 0 0 32 90;" xml:space="preserve">
<style type="text/css">
	.st0{fill:#E52538;}
</style>
<g>
	<path class="st0" d="M0,0v7.03C0.17,7.01,0.33,7,0.5,7c4.42,0,8,3.58,8,8s-3.58,8-8,8c-0.17,0-0.33-0.01-0.5-0.03v4.05
		C0.17,27.01,0.33,27,0.5,27c4.42,0,8,3.58,8,8s-3.58,8-8,8c-0.17,0-0.33-0.01-0.5-0.03v4.05C0.17,47.01,0.33,47,0.5,47
		c4.42,0,8,3.58,8,8s-3.58,8-8,8c-0.17,0-0.33-0.01-0.5-0.03v4.05C0.17,67.01,0.33,67,0.5,67c4.42,0,8,3.58,8,8s-3.58,8-8,8
		c-0.17,0-0.33-0.01-0.5-0.03V90h32V0H0z"/>
</g>
</svg>
