<?xml version="1.0" encoding="utf-8"?>
<!-- Generator: Adobe Illustrator 27.2.0, SVG Export Plug-In . SVG Version: 6.00 Build 0)  -->
<svg version="1.1" id="레이어_1" xmlns="http://www.w3.org/2000/svg" xmlns:xlink="http://www.w3.org/1999/xlink" x="0px"
	 y="0px" viewBox="0 0 360 499.7" style="enable-background:new 0 0 360 499.7;" xml:space="preserve">
<style type="text/css">
	.st0{fill:none;stroke:#F9E532;stroke-width:18;stroke-miterlimit:10;}
	.st1{fill:none;stroke:#E52538;stroke-width:20;stroke-linecap:round;stroke-linejoin:round;}
	.st2{fill:#E52538;}
</style>
<path class="st0" d="M202.1,143.5C73.7,157.3,72.8,33.5,72.8,33.5c117-22.5,130.9,109,130.9,109"/>
<path class="st0" d="M212.1,138.5c0,0-58-98.8,27.6-127.8C239.8,10.7,290,80.1,212.1,138.5z"/>
<path class="st1" d="M35.5,149.7h289c14.1,0,25.5,11.4,25.5,25.5v289c0,14.1-11.4,25.5-25.5,25.5h-289c-14.1,0-25.5-11.4-25.5-25.5
	v-289C10,161.1,21.4,149.7,35.5,149.7z"/>
<path class="st2" d="M315.8,253.6c-22.9-81.3-135.5-66.7-135.5-3.1l0.2,2.6c1.5,7.4,2.1,14.9,1.9,22.4l-1.9-22.4
	c-4.9-24.9-22.1-60.6-80.5-52.6C22.3,211.1-9.2,377.6,176.3,436C176.3,436,354.4,390.6,315.8,253.6z M175.6,355.8
	c-4.5,3.2-10.7,2.1-13.9-2.4l0,0L136.3,317l-25.5,36.4c-3.2,4.5-9.4,5.6-13.9,2.4s-5.6-9.4-2.4-13.9l33.6-48l0.1-0.1
	c0.1-0.2,0.2-0.3,0.4-0.5c0.1-0.1,0.2-0.2,0.3-0.3c0.1-0.1,0.2-0.3,0.4-0.4c0.1-0.1,0.3-0.2,0.4-0.4c0.1-0.1,0.2-0.2,0.3-0.3
	c0.2-0.1,0.3-0.3,0.5-0.4l0.1-0.1c0.1,0,0.1-0.1,0.2-0.1c0.2-0.1,0.4-0.2,0.5-0.3c0.1-0.1,0.2-0.1,0.3-0.2c0.2-0.1,0.3-0.2,0.5-0.2
	c0.1-0.1,0.3-0.1,0.4-0.2c0.1-0.1,0.3-0.1,0.4-0.2c0.2-0.1,0.3-0.1,0.5-0.2c0.1,0,0.3-0.1,0.4-0.1c0.2,0,0.4-0.1,0.6-0.1
	c0.1,0,0.3,0,0.4-0.1c0.2,0,0.4-0.1,0.6-0.1c0.1,0,0.3,0,0.4,0c0.2,0,0.3,0,0.5,0s0.3,0,0.5,0c0.1,0,0.3,0,0.4,0
	c0.2,0,0.4,0,0.6,0.1c0.1,0,0.3,0,0.4,0.1c0.2,0,0.4,0.1,0.6,0.1c0.1,0,0.3,0.1,0.4,0.1c0.2,0.1,0.3,0.1,0.5,0.2
	c0.1,0,0.3,0.1,0.4,0.2c0.1,0.1,0.3,0.1,0.4,0.2c0.2,0.1,0.3,0.2,0.5,0.2c0.1,0.1,0.2,0.1,0.4,0.2s0.4,0.2,0.5,0.3
	c0.1,0,0.1,0.1,0.2,0.1l0.1,0.1c0.2,0.1,0.3,0.2,0.5,0.4c0.1,0.1,0.2,0.2,0.3,0.3c0.1,0.1,0.3,0.2,0.4,0.4c0.1,0.1,0.2,0.2,0.4,0.4
	c0.1,0.1,0.2,0.2,0.3,0.3c0.1,0.2,0.3,0.3,0.4,0.5l0.1,0.1l33.6,48C181.2,346.5,180.1,352.7,175.6,355.8L175.6,355.8z M251,338.8
	c5.5,0,10,4.4,10,9.9s-4.4,10-9.9,10l0,0h-45.9c-5.7-1.2-9.9-6.2-10-12.1v-45.9c0.1-0.7,0.1-1.4,0-2.1c0-5.5,4.5-10,10-10H251
	c5.5,0,10,4.5,10,10s-4.5,10-10,10h-35.9v30.3L251,338.8z"/>
<path class="st2" d="M184.6,274.9l-2.2-21c0-0.8-0.7-1.5-1.5-1.5s-1.5,0.7-1.5,1.5l2.2,21c0,0.8,0.7,1.5,1.5,1.5
	C184,276.3,184.6,275.7,184.6,274.9z"/>
</svg>
