<?xml version="1.0" encoding="utf-8"?>
<!-- Generator: Adobe Illustrator 27.2.0, SVG Export Plug-In . SVG Version: 6.00 Build 0)  -->
<svg version="1.1" id="레이어_1" xmlns="http://www.w3.org/2000/svg" xmlns:xlink="http://www.w3.org/1999/xlink" x="0px"
	 y="0px" viewBox="0 0 360 499.7" style="enable-background:new 0 0 360 499.7;" xml:space="preserve">
<style type="text/css">
	.st0{fill:#FFFFFF;stroke:#F9E532;stroke-width:18;stroke-miterlimit:10;}
	.st1{fill:#E52538;}
	.st2{fill:#E52538;stroke:#E52538;stroke-width:20;stroke-linecap:round;stroke-linejoin:round;}
</style>
<path class="st0" d="M202.1,143.5C73.7,157.3,72.8,33.5,72.8,33.5c117-22.5,130.9,109,130.9,109"/>
<path class="st0" d="M212.1,138.5c0,0-58-98.8,27.6-127.8C239.8,10.7,290,80.1,212.1,138.5z"/>
<path class="st1" d="M144.6,293.9l-0.1-0.1c-0.1-0.2-0.3-0.3-0.4-0.5c-0.1-0.1-0.2-0.2-0.3-0.3c-0.2-0.2-0.3-0.3-0.4-0.4
	c-0.1-0.2-0.3-0.3-0.4-0.4c-0.1-0.1-0.2-0.2-0.3-0.3c-0.2-0.2-0.3-0.3-0.5-0.4l-0.1-0.1c-0.1,0-0.1-0.1-0.2-0.1
	c-0.1-0.1-0.3-0.2-0.5-0.3c-0.2-0.1-0.3-0.1-0.4-0.2c-0.2,0-0.3-0.1-0.5-0.2c-0.1-0.1-0.3-0.1-0.4-0.2c-0.1-0.1-0.3-0.2-0.4-0.2
	c-0.2-0.1-0.3-0.1-0.5-0.2c-0.1,0-0.3-0.1-0.4-0.1c-0.2,0-0.4-0.1-0.6-0.1c-0.1-0.1-0.3-0.1-0.4-0.1c-0.2-0.1-0.4-0.1-0.6-0.1
	c-0.1,0-0.3,0-0.4,0c-0.2,0-0.3,0-0.5,0s-0.3,0-0.5,0c-0.1,0-0.3,0-0.4,0c-0.2,0-0.4,0.1-0.6,0.1c-0.1,0.1-0.3,0.1-0.4,0.1
	c-0.2,0-0.4,0.1-0.6,0.1c-0.1,0-0.3,0.1-0.4,0.1c-0.2,0.1-0.3,0.1-0.5,0.2c-0.1,0.1-0.3,0.1-0.4,0.2c-0.1,0.1-0.3,0.1-0.4,0.2
	c-0.2,0-0.3,0.1-0.5,0.2c-0.1,0.1-0.2,0.1-0.3,0.2c-0.1,0.1-0.3,0.2-0.5,0.3c-0.1,0-0.1,0.1-0.2,0.1l-0.1,0.1
	c-0.2,0.1-0.3,0.3-0.5,0.4c-0.1,0.1-0.2,0.2-0.3,0.3c-0.1,0.2-0.3,0.3-0.4,0.4c-0.2,0.1-0.3,0.3-0.4,0.4c-0.1,0.1-0.2,0.2-0.3,0.3
	c-0.2,0.2-0.3,0.3-0.4,0.5l-0.1,0.1l-33.6,48c-3.2,4.5-2.1,10.7,2.4,13.9s10.7,2.1,13.9-2.4l25.5-36.4l25.4,36.4
	c3.2,4.5,9.4,5.6,13.9,2.4c4.5-3.1,5.6-9.3,2.6-13.9L144.6,293.9z"/>
<path class="st2" d="M180.5,253.1l1.9,22.4C182.6,268,182,260.5,180.5,253.1z"/>
<path class="st2" d="M324.5,149.7h-289c-14.1,0-25.5,11.4-25.5,25.5v289c0,14.1,11.4,25.5,25.5,25.5h289c14.1,0,25.5-11.4,25.5-25.5
	v-289C350,161.1,338.6,149.7,324.5,149.7z M176.3,436C-9.2,377.6,22.3,211.1,100,200.5c58.4-8,75.6,27.7,80.5,52.6l-0.2-2.6
	c0-63.6,112.6-78.2,135.5,3.1C354.4,390.6,176.3,436,176.3,436z"/>
<path class="st1" d="M251,308.6c5.5,0,10-4.5,10-10s-4.5-10-10-10h-45.8c-5.5,0-10,4.5-10,10c0.1,0.7,0.1,1.4,0,2.1v45.9
	c0.1,5.9,4.3,10.9,10,12.1h45.9c5.5,0,9.9-4.5,9.9-10s-4.5-9.9-10-9.9l-35.9,0.1v-30.3H251z"/>
<path class="st1" d="M184.6,274.9l-2.2-21c0-0.8-0.7-1.5-1.5-1.5s-1.5,0.7-1.5,1.5l2.2,21c0,0.8,0.7,1.5,1.5,1.5
	C184,276.3,184.6,275.7,184.6,274.9z"/>
</svg>
